<svg width="28px" height="28px" viewBox="0 0 28 28" version="1.1" xmlns="http://www.w3.org/2000/svg" xmlns:xlink="http://www.w3.org/1999/xlink">
    <g id="Home" stroke="none" stroke-width="1" fill="#9F63C6" fill-rule="evenodd" transform="translate(0, 1)">
        <path d="M26.9230769,15.385146 C27.5178451,15.385146 28,15.8771408 28,16.4840471 L28,16.4840471 L28,25.2752559 C28,25.8821622 27.5178451,26.374157 26.9230769,26.374157 L26.9230769,26.374157 L1.07692308,26.374157 C0.482154885,26.374157 0,25.8821622 0,25.2752559 L0,25.2752559 L0,16.4840471 C0,15.8771408 0.482154885,15.385146 1.07692308,15.385146 L1.07692308,15.385146 Z M25.8461538,17.5829482 L2.15384615,17.5829482 L2.15384615,24.1763548 L25.8461538,24.1763548 L25.8461538,17.5829482 Z M5.38461538,19.7807504 C5.97938358,19.7807504 6.46153846,20.2727452 6.46153846,20.8796515 C6.46153846,21.4865578 5.97938358,21.9785526 5.38461538,21.9785526 C4.78984719,21.9785526 4.30769231,21.4865578 4.30769231,20.8796515 C4.30769231,20.2727452 4.78984719,19.7807504 5.38461538,19.7807504 Z M9.69230769,19.7807504 C10.2870759,19.7807504 10.7692308,20.2727452 10.7692308,20.8796515 C10.7692308,21.4865578 10.2870759,21.9785526 9.69230769,21.9785526 C9.0975395,21.9785526 8.61538462,21.4865578 8.61538462,20.8796515 C8.61538462,20.2727452 9.0975395,19.7807504 9.69230769,19.7807504 Z M14,19.7807504 C14.5947682,19.7807504 15.0769231,20.2727452 15.0769231,20.8796515 C15.0769231,21.4865578 14.5947682,21.9785526 14,21.9785526 C13.4052318,21.9785526 12.9230769,21.4865578 12.9230769,20.8796515 C12.9230769,20.2727452 13.4052318,19.7807504 14,19.7807504 Z M18.3076923,19.7807504 C18.9024605,19.7807504 19.3846154,20.2727452 19.3846154,20.8796515 C19.3846154,21.4865578 18.9024605,21.9785526 18.3076923,21.9785526 C17.7129241,21.9785526 17.2307692,21.4865578 17.2307692,20.8796515 C17.2307692,20.2727452 17.7129241,19.7807504 18.3076923,19.7807504 Z M22.6153846,19.7807504 C23.2101528,19.7807504 23.6923077,20.2727452 23.6923077,20.8796515 C23.6923077,21.4865578 23.2101528,21.9785526 22.6153846,21.9785526 C22.0206164,21.9785526 21.5384615,21.4865578 21.5384615,20.8796515 C21.5384615,20.2727452 22.0206164,19.7807504 22.6153846,19.7807504 Z M4.66542302,0.0499119477 C7.47347802,-0.336859043 10.0948342,1.56320424 10.6615385,4.39613502 L10.6615385,4.39613502 L26.9230769,4.39613502 C27.5178451,4.39613502 28,4.8881298 28,5.49503612 C28,6.10194244 27.5178451,6.59393722 26.9230769,6.59393722 L26.9230769,6.59393722 L25.8461538,6.59393722 L25.8461538,8.79173942 C25.8461538,9.39864574 25.363999,9.89064052 24.7692308,9.89064052 C24.1744626,9.89064052 23.6923077,9.39864574 23.6923077,8.79173942 L23.6923077,8.79173942 L23.6923077,6.59393722 L21.5384615,6.59393722 L21.5384615,10.9895416 C21.5384615,11.5964479 21.0563067,12.0884427 20.4615385,12.0884427 C19.8667703,12.0884427 19.3846154,11.5964479 19.3846154,10.9895416 L19.3846154,10.9895416 L19.3846154,6.59393722 L10.6615385,6.59393722 C10.1497108,9.15254301 7.9437541,10.9900746 5.38461538,10.9895416 C2.55109452,10.9889515 0.202830769,8.7476648 0.013174247,5.86280088 C-0.176482275,2.97793695 1.85736802,0.436682938 4.66542302,0.0499119477 Z M5.38461538,2.19833283 C3.60031081,2.19833283 2.15384615,3.67431717 2.15384615,5.49503612 C2.15384615,7.31575508 3.60031081,8.79173942 5.38461538,8.79173942 C7.16891996,8.79173942 8.61538462,7.31575508 8.61538462,5.49503612 C8.61538462,3.67431717 7.16891996,2.19833283 5.38461538,2.19833283 Z" id="encryption"></path>
    </g>
</svg>
