<svg width="29px" height="28px" viewBox="0 0 29 28" version="1.1" xmlns="http://www.w3.org/2000/svg" xmlns:xlink="http://www.w3.org/1999/xlink">
    <g id="Home" stroke="none" stroke-width="1" fill="#9F63C6" fill-rule="evenodd" transform="translate(0, 2)">
        <path d="M25.9990082,9.27 C25.875647,6.32261301 23.4489745,3.99741953 20.4990082,4 C19.9914482,3.99655935 19.4861094,4.06730678 18.9990082,4.21 C17.623483,1.62041764 14.9312436,0.00122799309 11.9990082,0 C8.24458534,0.00136684739 4.99620888,2.61337762 4.18900817,6.28 C1.36758077,7.17354311 -0.380883415,9.9909003 0.0708234854,12.9157649 C0.522530385,15.8406294 3.03946914,17.9992512 5.99900817,18 L5.99900817,23 C5.99900817,23.5522847 6.44672342,24 6.99900817,24 L18.9990082,24 C19.5512929,24 19.9990082,23.5522847 19.9990082,23 L19.9990082,18 L24.4990082,18 C26.6939955,18.0111648 28.5752968,16.4337086 28.9470004,14.2703939 C29.3187039,12.1070791 28.0718354,9.99213669 25.9990082,9.27 Z M17.9990082,22 L7.99900817,22 L7.99900817,15 L17.9990082,15 L17.9990082,22 Z M14.9990082,13 L10.9990082,13 L10.9990082,11 C10.9990082,9.8954305 11.8944387,9 12.9990082,9 C14.1035777,9 14.9990082,9.8954305 14.9990082,11 L14.9990082,13 Z M24.4990082,16 L19.9990082,16 L19.9990082,14 C19.9990082,13.4477153 19.5512929,13 18.9990082,13 L16.9990082,13 L16.9990082,11 C16.9990082,8.790861 15.2081472,7 12.9990082,7 C10.7898692,7 8.99900817,8.790861 8.99900817,11 L8.99900817,13 L6.99900817,13 C6.44672342,13 5.99900817,13.4477153 5.99900817,14 L5.99900817,16 C3.95321493,15.9771083 2.25445897,14.4141604 2.06157932,12.3773512 C1.86869966,10.3405421 3.24387721,8.48650198 5.24900817,8.08 C5.6775833,8.00050391 6.00529467,7.65256344 6.05900817,7.22 C6.42866348,4.51407946 8.5790561,2.39919243 11.2907555,2.07463518 C14.0024549,1.75007792 16.5912107,3.29774684 17.5890082,5.84 C17.6913493,6.10205515 17.8993417,6.30887974 18.1619689,6.40974381 C18.4245961,6.51060788 18.7175621,6.49618035 18.9690082,6.37 C19.4427818,6.12797417 19.9669964,6.00120332 20.4990082,6 C22.4320048,6 23.9990082,7.56700338 23.9990082,9.5 C23.9990082,9.59 23.9990082,9.68 23.9990082,9.78 L23.9990082,9.92 C23.9492456,10.4386494 24.306057,10.9085962 24.8190082,11 C26.19972,11.0883656 27.2473737,12.2792881 27.1590082,13.66 C27.0706426,15.0407119 25.87972,16.0883656 24.4990082,16 L24.4990082,16 Z"></path>
    </g>
</svg>
