<svg width="22px" height="28px" viewBox="0 0 22 28" version="1.1" xmlns="http://www.w3.org/2000/svg" xmlns:xlink="http://www.w3.org/1999/xlink">
    <g id="Home" stroke="none" stroke-width="1" fill="#9F63C6" fill-rule="evenodd" transform="translate(0, 1)">
        <path d="M13.086,23.089 L11,23.923 L8.914,23.089 C7.383,22.477 6.053,21.552 4.977,20.408 L20,3.617 L20,12.876 C20,17.4 17.286,21.408 13.086,23.089 L13.086,23.089 Z M2,2 L18.764,2 L3.729,18.804 C2.625,17.075 2,15.036 2,12.876 L2,2 Z M21.994,0.973 C21.992,0.9 21.97,0.83 21.951,0.759 C21.938,0.703 21.933,0.645 21.909,0.593 C21.888,0.544 21.849,0.504 21.819,0.459 C21.776,0.395 21.738,0.329 21.683,0.277 C21.677,0.271 21.674,0.261 21.667,0.255 C21.631,0.223 21.586,0.21 21.546,0.185 C21.483,0.143 21.425,0.099 21.354,0.071 C21.286,0.046 21.217,0.04 21.147,0.029 C21.097,0.022 21.052,-1.77635684e-15 21,-1.77635684e-15 L1,-1.77635684e-15 C0.447,-1.77635684e-15 0,0.447 0,1 L0,12.876 C0,18.222 3.207,22.959 8.172,24.946 L10.629,25.929 C10.748,25.977 10.874,26 11,26 C11.126,26 11.252,25.977 11.371,25.929 L13.828,24.946 C18.793,22.959 22,18.222 22,12.876 L22,1 C22,0.99 21.995,0.983 21.994,0.973 L21.994,0.973 Z" id="shield"></path>
    </g>
</svg>
